<svg xmlns="http://www.w3.org/2000/svg" width="51" height="31" viewBox="0 0 51 31" fill="none">
  <path d="M10.3289 28.3448C9.83396 29.7035 8.89138 30.2575 7.52822 30.2074C6.61809 30.1735 5.70661 30.2087 4.79513 30.1993C3.35353 30.183 2.31223 29.1399 2.28924 27.6999C2.28654 27.5144 2.27978 27.3274 2.28924 27.1418C2.3217 26.5797 2.25543 26.0825 1.87812 25.5921C1.62253 25.2602 1.49811 24.7482 1.49541 24.3147C1.46566 20.9173 1.47377 17.5185 1.48729 14.121C1.48729 13.8826 1.59143 13.6334 1.69421 13.4112C1.80104 13.185 1.98496 12.9953 2.10396 12.7732C2.79501 11.4849 3.72137 10.4649 5.15756 10.0029C5.23329 9.97855 5.2982 9.91624 5.36176 9.87425C5.24681 9.31072 4.98176 9.02489 4.35833 9.0872C3.72408 9.15087 3.07765 9.10616 2.43664 9.09939C1.88759 9.09397 0.765144 8.13895 0.685356 7.60387C0.666423 7.47653 0.673185 7.32345 0.727278 7.20831C1.00721 6.61227 1.26687 6.00133 1.61848 5.44863C1.75236 5.23866 2.10938 5.07204 2.37173 5.05985C3.39951 5.0165 4.43 5.02599 5.45913 5.05444C5.68903 5.06121 5.94597 5.18313 6.13665 5.32536C6.40442 5.52585 6.62215 5.79271 6.86016 6.03248C7.1712 6.3454 7.23611 6.69761 7.03461 7.09452C6.90479 7.35055 6.79795 7.62148 6.64108 7.8599C6.42335 8.19178 6.44499 8.48303 6.7682 8.83659C6.87233 8.63339 6.96834 8.45458 7.05895 8.27171C7.81762 6.74503 8.53436 5.19667 9.76364 3.95988C11.7191 1.9943 14.0654 0.937684 16.831 0.768354C19.6087 0.599024 22.3824 0.344351 25.1628 0.226498C26.5557 0.168248 27.9581 0.310488 29.3537 0.39854C31.4079 0.528585 33.4702 0.604441 35.5082 0.860468C39.265 1.33188 41.9846 3.35301 43.7169 6.71658C44.0712 7.40338 44.412 8.09696 44.7731 8.81627C45.1112 8.51554 45.118 8.24055 44.9259 7.8748C44.1605 6.41179 44.1456 6.55944 45.4141 5.3362C45.5886 5.16823 45.8888 5.05985 46.1349 5.05308C47.1465 5.02192 48.1594 5.0436 49.1723 5.03818C49.5685 5.03547 49.8485 5.20074 50.0243 5.55565C50.2717 6.05552 50.5327 6.54725 50.7653 7.05253C50.8397 7.21373 50.8871 7.41287 50.8695 7.58761C50.8127 8.12812 49.6929 9.08856 49.1358 9.09533C48.4948 9.1021 47.8483 9.14409 47.2141 9.08313C46.6015 9.02488 46.3067 9.27549 46.1998 9.88779C46.7178 10.1506 47.2668 10.4039 47.7875 10.706C48.0404 10.8523 48.2621 11.0717 48.4582 11.2926C49.7957 12.7935 50.2433 14.5207 50.1162 16.5472C49.9593 19.056 50.0729 21.5824 50.0824 24.102C50.0851 24.8078 49.8958 25.4269 49.4414 25.9741C49.3359 26.1001 49.2859 26.302 49.2764 26.4726C49.2534 26.9278 49.2818 27.3857 49.2629 27.8408C49.2101 29.1142 48.1905 30.1519 46.9193 30.1857C45.7725 30.2169 44.623 30.2277 43.4776 30.183C42.3159 30.1369 41.6032 29.4501 41.2692 28.4938C40.2806 28.4938 39.3178 28.6347 38.4184 28.4545C37.53 28.2757 36.7077 27.7717 35.8301 27.3992C35.7665 27.4913 35.6894 27.5618 35.661 27.6498C35.4189 28.3949 34.9091 28.594 34.145 28.5899C28.6951 28.5615 23.2438 28.5615 17.7939 28.5872C16.8661 28.5913 16.0426 28.5737 15.8235 27.3735C15.2014 27.6349 14.6145 27.8083 14.1033 28.1118C13.204 28.6468 12.2709 28.571 11.3121 28.4369C10.997 28.3935 10.6778 28.3732 10.3316 28.3393L10.3289 28.3448ZM8.53165 9.07365H43.0881C42.6973 8.30421 42.3713 7.56323 41.9589 6.87372C40.3266 4.14276 37.9127 2.64589 34.7401 2.4034C32.9577 2.26659 31.1726 2.14738 29.3888 2.03495C28.0433 1.95096 26.6909 1.78434 25.3494 1.83988C22.5866 1.95638 19.8305 2.2246 17.069 2.38173C12.7199 2.63099 9.99624 5.21293 8.53165 9.07229V9.07365ZM25.8065 22.0863C28.6234 22.0863 31.4417 22.0863 34.2586 22.0863C34.4601 22.0863 34.6657 22.0863 34.8645 22.0565C37.914 21.5905 40.9608 21.111 44.0117 20.6585C44.5703 20.5759 45.0219 20.3944 45.4019 19.9555C45.855 19.4339 46.3743 18.9706 46.8598 18.4776C47.3912 17.9371 48.1215 17.4751 48.3879 16.8235C48.6543 16.1706 48.4542 15.3267 48.4582 14.5654C48.4582 14.5315 48.4664 14.4949 48.4569 14.4638C48.4123 14.3053 48.3866 14.1359 48.3108 13.9937C47.6509 12.7583 46.7894 11.7382 45.3898 11.3075C45.2951 11.2776 45.2018 11.2262 45.1207 11.1679C44.7474 10.8997 44.4837 10.9593 44.1456 11.3061C42.3659 13.1321 40.5606 14.9325 38.743 16.722C38.4915 16.9698 38.148 17.1758 37.8099 17.2787C36.1506 17.7826 34.5021 18.3705 32.8035 18.6808C31.5134 18.9178 30.1556 18.7891 28.829 18.8081C28.7059 18.8094 28.572 18.7241 28.4611 18.651C27.624 18.0969 26.7071 17.9276 25.7199 18.0224C25.3683 18.0563 25.0113 18.0156 24.6583 18.0332C24.4785 18.0427 24.2689 18.0549 24.1296 18.1497C23.1573 18.8149 22.074 18.9354 20.9421 18.8393C20.1077 18.7688 19.2517 18.7932 18.4457 18.6022C16.8743 18.2283 15.3245 17.7515 13.7801 17.2746C13.415 17.1622 13.0404 16.9346 12.7753 16.6596C11.0146 14.839 9.27544 12.9967 7.54985 11.1422C7.27803 10.8496 7.08329 10.8225 6.74521 11.0121C6.10014 11.3752 5.42127 11.6786 4.76538 12.0254C4.59499 12.1148 4.42459 12.2476 4.3137 12.4034C3.50229 13.544 3.09749 14.8083 3.09929 16.1963C3.09929 16.2979 3.0736 16.4077 3.1047 16.4984C3.18178 16.7233 3.23318 16.9888 3.38734 17.1487C4.39619 18.1931 5.42262 19.2213 6.46392 20.2332C6.63973 20.4039 6.9129 20.5258 7.15768 20.5664C9.01985 20.8739 10.8901 21.1367 12.751 21.4496C15.265 21.8723 17.779 22.2001 20.3417 22.1026C22.1606 22.0335 23.9849 22.089 25.8078 22.089L25.8065 22.0863ZM9.38904 10.7439C10.9496 12.3939 12.4318 13.9639 13.9234 15.5244C14.0425 15.6491 14.2304 15.729 14.4008 15.7791C15.9357 16.2275 17.4544 16.7639 19.0177 17.0714C20.0901 17.2828 21.2275 17.1757 22.335 17.2001C22.427 17.2028 22.5298 17.1405 22.6109 17.0836C23.517 16.4619 24.5245 16.3156 25.5942 16.3995C26.0634 16.4361 26.5408 16.3725 27.0087 16.4158C27.3833 16.451 27.7985 16.4957 28.1122 16.68C29.5646 17.5374 31.1198 17.3356 32.6223 17.0511C34.1369 16.7639 35.6069 16.2356 37.0904 15.7927C37.3352 15.7195 37.5895 15.58 37.7693 15.4012C39.2123 13.9788 40.6376 12.5402 42.0671 11.1056C42.1658 11.0067 42.2523 10.8943 42.3835 10.7439H9.38769H9.38904ZM33.3837 24.5992C33.5662 24.6737 33.7055 24.7279 33.8421 24.7861C35.4054 25.4567 36.9674 26.134 38.5361 26.7896C38.7552 26.8818 39.0229 26.9129 39.2623 26.8939C40.4551 26.7937 41.6465 26.6677 42.8379 26.5485C43.89 26.4428 44.9408 26.3358 45.978 26.2302C46.1187 25.37 46.0551 24.6303 45.4425 23.9855C45.0273 23.548 44.719 23.0088 44.3268 22.5455C44.2132 22.4128 43.9603 22.3031 43.7913 22.3274C41.9562 22.593 40.1265 22.895 38.294 23.1687C36.9944 23.3637 35.6935 23.6726 34.3898 23.6861C28.6532 23.743 22.9165 23.7119 17.1799 23.7078C16.9284 23.7078 16.6755 23.6834 16.4266 23.6455C13.5448 23.2025 10.6643 22.7487 7.77975 22.322C7.60124 22.2963 7.33078 22.4263 7.20771 22.5726C6.7939 23.0617 6.47339 23.636 6.03117 24.0925C5.41721 24.7265 5.49835 25.4512 5.56326 26.2247C7.70131 26.4388 9.81503 26.6311 11.9247 26.8723C12.4873 26.9373 12.9755 26.8438 13.4785 26.6149C14.505 26.1462 15.5476 25.7127 16.5849 25.267C17.1042 25.0435 17.6262 24.8281 18.1739 24.5978C18.3943 25.1207 18.5931 25.5921 18.7959 26.0717C18.2564 26.3155 17.7749 26.5322 17.2935 26.7503C17.303 26.795 17.3124 26.8384 17.3219 26.8831H34.2356C34.2465 26.8398 34.2586 26.795 34.2695 26.7517C33.7772 26.5282 33.2836 26.3033 32.7575 26.0649C32.9699 25.5677 33.1727 25.0936 33.3837 24.6005V24.5992ZM5.6417 21.9292C4.76132 21.0405 3.92828 20.1993 3.10199 19.3662C3.10199 21.0013 3.08982 22.6864 3.11011 24.3716C3.11552 24.8457 3.45496 25.095 3.93504 25.2792C3.78493 24.5369 4.04187 23.9855 4.48139 23.4681C4.91819 22.9546 5.2955 22.3925 5.6417 21.9278V21.9292ZM45.8955 21.9048C46.2377 22.364 46.588 22.8842 46.9882 23.361C47.4386 23.8975 47.7645 24.4583 47.6631 25.1912C47.6604 25.2061 47.7063 25.2291 47.7374 25.2535C48.2486 25.0191 48.4907 24.6371 48.4637 24.0546C48.4353 23.4477 48.4569 22.8381 48.4569 22.2299C48.4569 21.2573 48.4569 20.2847 48.4569 19.3283C47.6022 20.1871 46.7651 21.0297 45.8955 21.9048ZM3.95532 27.3979C3.84443 28.189 4.146 28.571 4.89656 28.5764C5.85537 28.5832 6.81418 28.5954 7.77299 28.5669C8.04076 28.5588 8.30581 28.4233 8.57222 28.3461C8.56141 28.2865 8.55059 28.2255 8.53977 28.1659C7.89605 28.0996 7.24558 28.0684 6.60863 27.9573C5.71878 27.8029 4.7505 28.0156 3.95668 27.3979H3.95532ZM47.6211 27.4805C47.2479 27.5929 46.9139 27.7447 46.5663 27.7894C45.6332 27.9086 44.6933 27.9804 43.7575 28.0779C43.506 28.1036 43.2585 28.1497 43.0083 28.1876C43.0029 28.2472 42.9975 28.3068 42.9921 28.3664C43.249 28.4369 43.5046 28.5629 43.7643 28.5696C44.7055 28.594 45.6481 28.5818 46.5907 28.5791C47.398 28.5764 47.6915 28.2391 47.6225 27.4832L47.6211 27.4805ZM5.31984 6.74367C5.16162 6.71658 5.00745 6.67187 4.85328 6.66916C4.34886 6.65968 3.84038 6.7071 3.34271 6.65427C2.79637 6.59737 2.5854 6.86152 2.49615 7.39796C2.65437 7.42505 2.80719 7.47111 2.96135 7.47382C3.46578 7.4833 3.97426 7.43589 4.47192 7.48872C5.01962 7.54561 5.22923 7.28146 5.31984 6.74367ZM46.1931 6.6651C46.354 7.25302 46.5257 7.56052 47.0883 7.49008C47.567 7.42912 48.0607 7.48466 48.5475 7.47382C48.7165 7.46976 48.8856 7.42506 49.0533 7.39932C48.9748 6.80869 48.6936 6.61498 48.1567 6.65562C47.5319 6.70303 46.9017 6.66645 46.1944 6.66645L46.1931 6.6651Z" fill="#00A7DE"/>
  <path d="M4.53013 16.4383C4.58963 15.5253 4.64642 14.531 4.7208 13.538C4.7749 12.8092 5.40239 12.4692 6.01906 12.8661C7.88935 14.069 9.75017 15.2896 11.6002 16.5236C12.156 16.8948 12.1519 17.5098 11.6096 17.9122C10.7698 18.5353 9.9111 19.1313 9.05912 19.7355C8.71698 19.978 8.37349 19.9604 8.02188 19.7423C7.00492 19.1124 5.99201 18.4757 4.96288 17.8647C4.40436 17.5329 4.50714 17.0194 4.53013 16.4383ZM9.76099 17.2443C8.56822 16.4627 7.43767 15.7231 6.26383 14.9536C6.22191 15.4968 6.16917 15.9479 6.16241 16.4017C6.16105 16.5372 6.2503 16.7309 6.35984 16.8027C7.06441 17.2606 7.78657 17.6914 8.51143 18.137C8.91172 17.8512 9.29443 17.5789 9.75964 17.2457L9.76099 17.2443Z" fill="#00A7DE"/>
  <path d="M47.0467 16.7231C47.2171 17.3272 46.856 17.7458 46.238 18.0912C45.3414 18.5911 44.4772 19.1519 43.609 19.7006C43.1871 19.9674 42.8084 19.9688 42.3987 19.6653C41.613 19.0842 40.8043 18.5329 40.0131 17.9585C39.3721 17.4925 39.387 16.8937 40.0551 16.4535C41.855 15.2655 43.6591 14.0815 45.4685 12.907C46.1663 12.4546 46.7897 12.7797 46.8452 13.6047C46.9114 14.599 46.9737 15.5933 47.0467 16.7231ZM41.8023 17.2419C42.1864 17.5155 42.4879 17.7607 42.8206 17.9544C42.9437 18.0262 43.1736 18.0425 43.2939 17.9734C43.9376 17.6076 44.5665 17.2175 45.1859 16.8111C45.2981 16.738 45.4009 16.5524 45.3995 16.4196C45.3928 15.9563 45.3373 15.4944 45.2954 14.958C44.1161 15.7301 42.9964 16.4616 41.8036 17.2419H41.8023Z" fill="#00A7DE"/>
  <path d="M26.5614 18.8672V20.4237H24.998V18.8672H26.5614Z" fill="#00A7DE"/>
</svg>