<svg width="41" height="41" viewBox="0 0 41 41" fill="none" xmlns="http://www.w3.org/2000/svg">
<rect x="0.888672" y="0.448242" width="40" height="40" rx="20" fill="#FF5E5E"/>
<path fill-rule="evenodd" clip-rule="evenodd" d="M24.2214 17.7817C24.5895 17.7817 24.888 18.0802 24.888 18.4484V25.1151C24.888 26.2196 23.9926 27.1151 22.888 27.1151H18.888C17.7835 27.1151 16.888 26.2196 16.888 25.1151V18.4484C16.888 18.0802 17.1865 17.7817 17.5547 17.7817H24.2214ZM23.5547 19.1151H18.2214V25.1151C18.2214 25.4833 18.5198 25.7817 18.888 25.7817H22.888C23.2562 25.7817 23.5547 25.4833 23.5547 25.1151V19.1151ZM18.888 14.4484C18.888 14.0802 19.1865 13.7817 19.5547 13.7817H22.2214C22.5895 13.7817 22.888 14.0802 22.888 14.4484V15.1151H25.5547C25.9229 15.1151 26.2214 15.4135 26.2214 15.7817C26.2214 16.1499 25.9229 16.4484 25.5547 16.4484H16.2214C15.8532 16.4484 15.5547 16.1499 15.5547 15.7817C15.5547 15.4135 15.8532 15.1151 16.2214 15.1151H18.888V14.4484Z" fill="white"/>
</svg>
