<svg width="41" height="41" viewBox="0 0 41 41" fill="none" xmlns="http://www.w3.org/2000/svg">
<rect x="0.921875" y="0.448242" width="39.9662" height="40" rx="19.9831" fill="#647583"/>
<g clip-path="url(#clip0_473_44161)">
<path d="M22.3837 14.7256C23.7801 16.142 25.1716 17.5522 26.5818 18.9825C26.5192 19.0488 26.4647 19.1108 26.4071 19.169C23.7138 21.8636 21.0205 24.5588 18.324 27.2509C18.1982 27.376 18.0599 27.5025 17.9034 27.5807C16.0488 28.5077 14.1923 29.4322 12.3296 30.3423C11.7337 30.6333 11.0533 30.296 10.9375 29.6525C10.9 29.4447 10.9306 29.1881 11.0227 28.9984C11.929 27.1332 12.8535 25.2767 13.7786 23.4202C13.8437 23.29 13.9369 23.1674 14.0402 23.0641C16.7867 20.3119 19.5364 17.5629 22.2861 14.8132C22.313 14.7863 22.3424 14.7631 22.385 14.7256H22.3837Z" fill="white"/>
<path d="M27.9965 17.4626C26.6408 16.105 25.235 14.6986 23.8223 13.284C24.5371 12.5661 25.2224 11.7899 25.9992 11.1196C27.1478 10.1287 28.9016 10.2614 29.9788 11.3412C31.0685 12.434 31.2006 14.1772 30.1891 15.3376C29.5206 16.1044 28.727 16.7629 27.9971 17.462L27.9965 17.4626Z" fill="white"/>
<path d="M25.3894 28.4538C26.881 28.4538 28.3726 28.4488 29.8635 28.4563C30.5921 28.46 31.0715 29.136 30.8193 29.7951C30.6691 30.187 30.3755 30.4073 29.9524 30.4411C29.8673 30.448 29.7809 30.4455 29.6951 30.4455C26.8215 30.4455 23.948 30.4461 21.0744 30.4442C20.9198 30.4442 20.7583 30.4442 20.6105 30.4035C20.1186 30.2696 19.8307 29.8008 19.9039 29.2838C19.9709 28.8131 20.3796 28.4588 20.891 28.4569C22.39 28.4513 23.8897 28.455 25.3888 28.4544L25.3894 28.4538Z" fill="white"/>
</g>
<defs>
<clipPath id="clip0_473_44161">
<rect width="19.9662" height="20" fill="white" transform="translate(10.9219 10.4482)"/>
</clipPath>
</defs>
</svg>
