<svg width="45" height="45" viewBox="0 0 45 45" fill="none" xmlns="http://www.w3.org/2000/svg">
<rect x="0.203125" y="0.469727" width="44" height="44" rx="5" fill="white" fill-opacity="0.1"/>
<g clip-path="url(#clip0_473_43060)">
<path d="M32.1836 18.3498C32.1367 17.2871 31.9649 16.5565 31.7187 15.9235C31.4647 15.2515 31.074 14.6499 30.5621 14.1497C30.062 13.6418 29.4564 13.2472 28.7922 12.9972C28.1555 12.751 27.4288 12.5792 26.3661 12.5323C25.2955 12.4815 24.9556 12.4697 22.2402 12.4697C19.5248 12.4697 19.185 12.4815 18.1183 12.5283C17.0557 12.5752 16.3251 12.7472 15.6922 12.9932C15.02 13.2472 14.4184 13.6379 13.9183 14.1497C13.4104 14.6499 13.0159 15.2555 12.7657 15.9196C12.5196 16.5565 12.3477 17.2831 12.3009 18.3458C12.25 19.4164 12.2383 19.7563 12.2383 22.4717C12.2383 25.1871 12.25 25.5269 12.2969 26.5936C12.3437 27.6563 12.5157 28.3868 12.7619 29.0199C13.0159 29.6919 13.4104 30.2935 13.9183 30.7936C14.4184 31.3015 15.024 31.6962 15.6882 31.9462C16.3251 32.1924 17.0517 32.3642 18.1145 32.4111C19.181 32.4581 19.521 32.4697 22.2364 32.4697C24.9518 32.4697 25.2917 32.4581 26.3583 32.4111C27.421 32.3642 28.1516 32.1924 28.7845 31.9462C30.1286 31.4265 31.1912 30.3638 31.7109 29.0199C31.9569 28.383 32.1289 27.6563 32.1758 26.5936C32.2226 25.5269 32.2344 25.1871 32.2344 22.4717C32.2344 19.7563 32.2304 19.4164 32.1836 18.3498ZM30.3825 26.5154C30.3395 27.4922 30.1754 28.0196 30.0387 28.3713C29.7026 29.2426 29.0111 29.9341 28.1398 30.2701C27.7882 30.4069 27.2569 30.5709 26.284 30.6138C25.2291 30.6608 24.9127 30.6724 22.2442 30.6724C19.5757 30.6724 19.2553 30.6608 18.2043 30.6138C17.2275 30.5709 16.7001 30.4069 16.3484 30.2701C15.9148 30.1099 15.5202 29.8559 15.1998 29.5238C14.8677 29.1995 14.6138 28.8088 14.4535 28.3752C14.3168 28.0236 14.1527 27.4922 14.1098 26.5194C14.0628 25.4645 14.0512 25.148 14.0512 22.4795C14.0512 19.8109 14.0628 19.4906 14.1098 18.4397C14.1527 17.4629 14.3168 16.9355 14.4535 16.5838C14.6138 16.1501 14.8677 15.7556 15.2038 15.4351C15.528 15.103 15.9187 14.849 16.3524 14.6889C16.704 14.5522 17.2354 14.3881 18.2082 14.3451C19.2631 14.2982 19.5796 14.2865 22.248 14.2865C24.9205 14.2865 25.2369 14.2982 26.2879 14.3451C27.2647 14.3881 27.7921 14.5522 28.1438 14.6889C28.5774 14.849 28.972 15.103 29.2924 15.4351C29.6245 15.7594 29.8784 16.1501 30.0387 16.5838C30.1754 16.9355 30.3395 17.4667 30.3825 18.4397C30.4294 19.4946 30.4411 19.8109 30.4411 22.4795C30.4411 25.148 30.4294 25.4605 30.3825 26.5154Z" fill="white"/>
<path d="M22.2393 17.334C19.4029 17.334 17.1016 19.6352 17.1016 22.4717C17.1016 25.3083 19.4029 27.6094 22.2393 27.6094C25.0758 27.6094 27.377 25.3083 27.377 22.4717C27.377 19.6352 25.0758 17.334 22.2393 17.334ZM22.2393 25.8044C20.3992 25.8044 18.9066 24.312 18.9066 22.4717C18.9066 20.6314 20.3992 19.139 22.2393 19.139C24.0795 19.139 25.572 20.6314 25.572 22.4717C25.572 24.312 24.0795 25.8044 22.2393 25.8044Z" fill="white"/>
<path d="M28.7799 17.1311C28.7799 17.7934 28.2428 18.3305 27.5803 18.3305C26.9179 18.3305 26.3809 17.7934 26.3809 17.1311C26.3809 16.4686 26.9179 15.9316 27.5803 15.9316C28.2428 15.9316 28.7799 16.4686 28.7799 17.1311Z" fill="white"/>
</g>
<defs>
<clipPath id="clip0_473_43060">
<rect width="20" height="20" fill="white" transform="translate(12.2031 12.4697)"/>
</clipPath>
</defs>
</svg>
