<svg width="9" height="17" viewBox="0 0 9 17" fill="none" xmlns="http://www.w3.org/2000/svg">
<g id="filename">
<g id="17">
<path id="Path 24" d="M1.25621 0.839992C1.40019 0.839154 1.54292 0.866819 1.67619 0.9214C1.80947 0.975979 1.93066 1.0564 2.03282 1.15804L8.59233 7.72934C8.7959 7.93451 8.91016 8.21204 8.91016 8.50131C8.91016 8.79059 8.7959 9.06812 8.59233 9.27328L2.03283 15.8446C1.82369 16.0238 1.5548 16.1173 1.27982 16.1066C1.00485 16.0959 0.744035 15.9816 0.549452 15.7867C0.354869 15.5918 0.240838 15.3305 0.230124 15.055C0.219411 14.7795 0.312804 14.5102 0.491657 14.3006L6.27556 8.50635L0.491656 2.71204C0.33796 2.55954 0.232889 2.36478 0.189748 2.15242C0.146605 1.94005 0.167332 1.71964 0.249303 1.51909C0.331274 1.31853 0.470803 1.14686 0.650225 1.02579C0.829647 0.904722 1.04089 0.83971 1.25722 0.838984L1.25621 0.839992Z" fill="#7F7F7F"/>
</g>
</g>
</svg>
