<svg xmlns="http://www.w3.org/2000/svg" width="40" height="41" viewBox="0 0 40 41" fill="none">
  <path d="M10.9057 11.3491L9.34427 10.0098C8.86404 10.5694 8.42583 11.1637 8.0332 11.7878L9.78172 12.8807C10.1174 12.3427 10.4931 11.8307 10.9057 11.3491Z" fill="#00A7DE"/>
  <path d="M13.7747 8.86146L12.6676 7.12598C12.0447 7.52151 11.4521 7.96272 10.8945 8.44598L12.2417 9.99436C12.7242 9.57952 13.2366 9.20086 13.7747 8.86146Z" fill="#00A7DE"/>
  <path d="M34.0115 13.0335C32.2888 9.60706 29.3144 6.97426 25.7041 5.68011C22.0937 4.38596 18.1239 4.52956 14.6166 6.08119L15.4515 7.96119C17.7527 6.93743 20.3039 6.6117 22.7886 7.0244C25.2733 7.43711 27.5822 8.57009 29.4288 10.2828C31.2755 11.9955 32.5787 14.2127 33.1768 16.6592C33.7749 19.1057 33.6416 21.6739 32.7935 24.0454C31.9453 26.4168 30.4196 28.4871 28.4055 29.9995C26.3915 31.5119 23.9777 32.3998 21.4636 32.5531C18.9496 32.7064 16.4458 32.1184 14.2629 30.8619C12.08 29.6055 10.314 27.7359 9.18389 25.4851L7.34375 26.4051C8.20919 28.1771 9.41744 29.7599 10.8986 31.0619C12.3797 32.364 14.1044 33.3594 15.9728 33.9907C17.8412 34.6219 19.8162 34.8765 21.7836 34.7396C23.751 34.6027 25.6717 34.077 27.4346 33.1931C29.1975 32.3091 30.7677 31.0844 32.0542 29.5897C33.3407 28.0951 34.318 26.3602 34.9297 24.4854C35.5413 22.6106 35.7751 20.6332 35.6175 18.6675C35.4599 16.7018 34.9141 14.7869 34.0115 13.0335Z" fill="#00A7DE"/>
  <path d="M9.13887 16.9367L7.91168 18.1612C8.02957 17.1463 8.27139 16.1496 8.63174 15.1935C8.71045 14.9832 8.79691 14.7741 8.88982 14.5664L7.00323 13.7432C6.89999 13.9806 6.79805 14.2219 6.71159 14.4632C6.23798 15.7066 5.93709 17.009 5.81733 18.3341L4.42497 16.9406L2.9668 18.3909L6.77998 22.2038L10.5932 18.3909L9.13887 16.9367Z" fill="#00A7DE"/>
  <path d="M19.127 10.4629V20.7493H25.3055V18.6926H21.1903V10.4629H19.127Z" fill="#00A7DE"/>
  <path d="M29.4124 18.6934H27.3555V20.7501H29.4124V18.6934Z" fill="#00A7DE"/>
  <path d="M21.1839 26.9209H19.127V28.9777H21.1839V26.9209Z" fill="#00A7DE"/>
</svg>