<svg xmlns="http://www.w3.org/2000/svg" width="40" height="41" viewBox="0 0 40 41" fill="none">
<path d="M36.6664 28.6569V33.6569C36.6683 34.121 36.5732 34.5805 36.3872 35.0058C36.2013 35.4311 35.9286 35.8128 35.5865 36.1266C35.2445 36.4404 34.8407 36.6793 34.401 36.828C33.9613 36.9767 33.4953 37.032 33.0331 36.9902C27.9044 36.4329 22.9781 34.6804 18.6497 31.8735C14.6228 29.3146 11.2086 25.9005 8.64973 21.8735C5.83302 17.5255 4.08013 12.5752 3.53306 7.42353C3.49141 6.96265 3.54618 6.49813 3.69389 6.05957C3.8416 5.62101 4.07901 5.21802 4.391 4.87624C4.70299 4.53446 5.08273 4.26138 5.50604 4.0744C5.92935 3.88742 6.38696 3.79064 6.84973 3.7902H11.8497C12.6586 3.78224 13.4427 4.06866 14.056 4.59609C14.6693 5.12351 15.0699 5.85595 15.1831 6.65687C15.3941 8.25698 15.7855 9.82808 16.3497 11.3402C16.574 11.9367 16.6225 12.5851 16.4896 13.2083C16.3566 13.8316 16.0478 14.4037 15.5997 14.8569L13.4831 16.9735C15.8557 21.1461 19.3105 24.6009 23.4831 26.9735L25.5997 24.8569C26.0529 24.4088 26.625 24.0999 27.2483 23.967C27.8715 23.8341 28.5199 23.8826 29.1164 24.1069C30.6285 24.6711 32.1996 25.0625 33.7997 25.2735C34.6093 25.3878 35.3487 25.7955 35.8773 26.4194C36.4058 27.0432 36.6867 27.8395 36.6664 28.6569Z" stroke="#00A7DE" stroke-width="3.33333" stroke-linecap="round" stroke-linejoin="round"/>
</svg>