<svg width="26" height="32" viewBox="0 0 26 32" fill="none" xmlns="http://www.w3.org/2000/svg">
<g id="Layer_1" clip-path="url(#clip0_473_44432)">
<path id="Vector" d="M4.86891 31.6907C4.68452 31.6537 4.50014 31.6136 4.31576 31.5788C1.84926 31.1171 0.226843 29.3313 0.118783 26.8291C0.0152562 24.4373 0.27974 22.0794 1.18956 19.8394C1.77672 18.3937 2.62911 17.143 4.05732 16.3782C4.93843 15.9059 5.88452 15.6837 6.87218 15.7026C7.18352 15.7086 7.51223 15.8666 7.79712 16.0215C8.25581 16.2709 8.68125 16.5808 9.12634 16.8558C11.7153 18.4549 14.3057 18.4527 16.8923 16.8498C17.2513 16.6269 17.6185 16.4122 17.9556 16.1598C18.5744 15.6958 19.2561 15.6376 19.9913 15.7457C21.9991 16.0404 23.4168 17.1407 24.3727 18.8948C25.2266 20.4614 25.6105 22.1618 25.7812 23.9143C25.8689 24.8144 25.9105 25.7235 25.8999 26.6273C25.8674 29.3275 24.0137 31.337 21.3281 31.6333C21.2616 31.6408 21.1974 31.6703 21.1316 31.6899H4.86891V31.6907ZM13.0052 29.877V29.8732C15.554 29.8732 18.1029 29.8936 20.6518 29.8671C22.8107 29.8445 24.1203 28.4834 24.0938 26.3288C24.084 25.5338 24.0538 24.7358 23.9654 23.9468C23.8037 22.5117 23.5067 21.1068 22.81 19.8168C22.0875 18.4791 21.0409 17.6146 19.4661 17.5269C19.3354 17.5194 19.1828 17.5503 19.0717 17.6161C18.6145 17.8904 18.1724 18.1904 17.7198 18.4723C16.4684 19.2522 15.1074 19.7253 13.6384 19.8372C11.6404 19.9891 9.81626 19.4419 8.13641 18.3756C7.73666 18.1217 7.34145 17.8625 6.93943 17.6131C6.85782 17.5624 6.7543 17.5103 6.66362 17.5148C5.68578 17.5624 4.80845 17.8685 4.10568 18.5774C3.52231 19.1653 3.115 19.8712 2.81803 20.6367C2.05858 22.5956 1.8742 24.6466 1.92558 26.7211C1.9543 27.866 2.45228 28.7985 3.47772 29.3895C4.14347 29.7734 4.87571 29.877 5.63062 29.877C8.0888 29.877 10.547 29.877 13.0052 29.877Z" fill="#00A7DE"/>
<path id="Vector_2" d="M13.5141 0.736328C13.9161 0.817191 14.3211 0.885961 14.7201 0.979671C17.4617 1.62204 19.8057 4.23986 20.173 7.03755C20.4148 8.87925 20.1496 10.6212 19.1083 12.1795C17.7254 14.2487 15.8128 15.4533 13.2836 15.6248C9.96242 15.8493 7.23068 13.895 5.99063 11.2439C4.82615 8.7538 5.29693 5.43542 7.12338 3.37154C8.24403 2.10419 9.59441 1.23133 11.2659 0.891251C11.5508 0.832305 11.8372 0.787717 12.1229 0.736328C12.5861 0.736328 13.0501 0.736328 13.5133 0.736328H13.5141ZM18.4523 8.23537C18.5181 5.17923 16.0214 2.61732 12.9133 2.55233C9.78181 2.48734 7.2526 4.93966 7.16494 8.08801C7.07955 11.157 9.63446 13.8179 12.7659 13.8428C15.8181 13.867 18.4644 11.3459 18.4516 8.23537H18.4523Z" fill="#00A7DE"/>
</g>
<defs>
<clipPath id="clip0_473_44432">
<rect width="25.8045" height="30.9544" fill="white" transform="translate(0.0957031 0.736328)"/>
</clipPath>
</defs>
</svg>
